<?xml version="1.0" standalone="yes"?>
<svg xmlns="http://www.w3.org/2000/svg" width="1366" height="768">
<path style="fill:#010101; stroke:none;" d="M0 0L0 768L114 768L146 768C150.204 768 156.732 769.221 160.61 767.397C164.572 765.533 166.412 758.479 168.749 755C174.095 747.045 180.516 739.974 188 734.004C218.762 709.465 256.381 700.938 295 701C313.21 701.029 331.433 704.936 349 709.335C370.926 714.825 393.138 721.846 413 732.861C424.177 739.06 435.373 745.747 445.015 754.21C450.332 758.877 455.417 767.281 463 767.941C473.832 768.884 485.125 768 496 768L562 768L762 768L1366 768L1366 526C1332.23 526 1310.43 501.842 1294 475C1279.64 477.668 1265.66 477.558 1252 471.769C1218.85 457.721 1200.47 417.633 1215.17 384C1223.67 364.543 1241.01 348.659 1262 344.014C1267.67 342.759 1273.18 341.875 1279 342.015C1281.66 342.079 1285.95 343.522 1288.3 341.933C1290.8 340.246 1291.95 335.594 1293.25 333C1296.2 327.093 1299.58 321.368 1303.43 316C1318.31 295.264 1339.89 280 1366 280C1366 274.97 1367.35 267.614 1364.97 263.039C1362.97 259.172 1358.29 255.922 1354.96 253.211C1346.28 246.135 1336.66 238.691 1327 233.128C1317.81 227.839 1309.3 221.355 1300 216.309C1283.74 207.491 1266.73 200.101 1250 192.409C1241.65 188.569 1232.67 185.929 1224 182.858C1219.5 181.262 1214.62 180.193 1211 177C1194.61 175.096 1177.93 167.381 1162 163.011C1132.94 155.038 1102.79 148.084 1073 143.439C1057.71 141.055 1042.33 139.64 1027 137.421C1021.75 136.66 1014.24 137.214 1010 134C1003.25 135.583 995.853 133.095 989 132.286C977.046 130.874 965.765 130.558 954 127.843C946.271 126.06 938.603 125.537 931 122.921C891.483 109.324 858.428 84.9527 831.854 53C819.404 38.0304 804.395 19.442 800 0L0 0z"/>
<path style="fill:#55655f; stroke:none;" d="M800 0C801.136 8.73309 806.593 17.6521 811.218 25C817.395 34.8115 823.468 44.1248 830.996 53C857.979 84.8088 890.258 109.247 930 122.921C937.603 125.537 945.271 126.06 953 127.843C965.078 130.63 976.755 130.816 989 132.424C995.748 133.311 1003.4 135.945 1010 134C1012.79 137.193 1019.87 136.556 1024 137.13C1036.25 138.833 1048.39 140.24 1060.58 142.13C1093.97 147.309 1127.26 154.064 1160 162.735C1171.06 165.664 1182.01 169.214 1193 172.424C1198.75 174.104 1205.05 176.779 1211 177C1214.41 181.548 1222.78 182.781 1228 184.681C1241.81 189.707 1255.45 195.089 1268.83 201.145C1290.57 210.983 1312.41 223.015 1332 236.623C1343.73 244.775 1354.15 255.104 1366 263L1366 0L800 0z"/>
<path style="fill:#7d8d89; stroke:none;" d="M1079.67 144.333C1079.22 144.778 1080.28 144.722 1080.33 144.667C1080.78 144.222 1079.72 144.278 1079.67 144.333z"/>
<path style="fill:#ffffff; stroke:none;" d="M1366 526L1366 280C1333.92 280 1309.26 301.565 1294.78 329C1272.15 371.877 1271.3 429.477 1292.76 473C1307.1 502.109 1332.12 526 1366 526z"/>
<path style="fill:#f61b01; stroke:none;" d="M1294 475C1282.19 446.606 1275.2 418.082 1278.17 387C1279.63 371.741 1285.45 357.836 1288 343C1279.93 341.502 1272.03 341.785 1264 343.4C1254.95 345.221 1246.65 348.536 1239 353.746C1201.24 379.447 1201.04 436.567 1237 463.761C1244.66 469.551 1253.62 473.481 1263 475.399C1273.32 477.51 1283.71 477.456 1294 475z"/>
<path style="fill:#55655f; stroke:none;" d="M1215.33 382.667C1215.28 382.722 1215.22 383.778 1215.67 383.333C1215.72 383.277 1215.78 382.223 1215.33 382.667z"/>
<path style="fill:#066106; stroke:none;" d="M1293 542C1294.25 542.685 1294.55 542.749 1296 543C1294.75 542.315 1294.45 542.251 1293 542z"/>
<path style="fill:#01de01; stroke:none;" d="M1296 542.439C1291.28 543.176 1287.06 544.752 1283.09 547.439C1257.93 564.494 1273.64 606.303 1304 601.561C1308.72 600.824 1312.94 599.248 1316.91 596.561C1342.07 579.506 1326.36 537.697 1296 542.439z"/>
<path style="fill:#066106; stroke:none;" d="M1304.67 542.333C1304.22 542.778 1305.28 542.722 1305.33 542.667C1305.78 542.222 1304.72 542.278 1304.67 542.333M1290 543L1291 544L1290 543M1309 543L1310 544L1309 543M1286 545L1287 546L1286 545M1313 545L1314 546L1313 545M1284 546L1285 547L1284 546M1315 546L1316 547L1315 546M1282 547L1283 548L1282 547M1317 547L1318 548L1317 547M1281 548L1282 549L1281 548M1318 548L1319 549L1318 548M1278 550L1278 552C1279.64 551.455 1279.45 551.635 1280 550L1278 550M1320 550C1320.55 551.635 1320.36 551.455 1322 552L1322 550L1320 550M1276 553L1277 554L1276 553M1323 553L1324 554L1323 553M1275 554L1276 555L1275 554M1324 554L1325 555L1324 554M1274 556L1275 557L1274 556M1325 556L1326 557L1325 556M1273 558L1274 559L1273 558M1326 558L1327 559L1326 558M1271 562L1272 563L1271 562M1328 562L1329 563L1328 562M1270 565L1270 568C1270.7 566.446 1270.7 566.554 1270 565M1329 565L1329 568C1329.7 566.446 1329.7 566.554 1329 565M1270.33 576.667C1270.28 576.722 1270.22 577.778 1270.67 577.333C1270.72 577.278 1270.78 576.222 1270.33 576.667M1329.33 576.667C1329.28 576.722 1329.22 577.778 1329.67 577.333C1329.72 577.278 1329.78 576.222 1329.33 576.667M1271 581L1272 582L1271 581M1328 581L1329 582L1328 581M1273 585L1274 586L1273 585M1326 585L1327 586L1326 585M1274 587L1275 588L1274 587M1325 587L1326 588L1325 587M1275 589L1276 590L1275 589M1324 589L1325 590L1324 589M1276 590L1277 591L1276 590M1323 590L1324 591L1323 590M1278 592L1278 594L1280 594C1279.45 592.365 1279.64 592.545 1278 592M1321 592L1320 594L1322 594C1322 592.147 1322.3 592.65 1321 592M1281 595L1282 596L1281 595M1318 595L1319 596L1318 595M1282 596L1283 597L1282 596M1317 596L1318 597L1317 596M1284 597L1285 598L1284 597M1315 597L1316 598L1315 597M1286 598L1287 599L1286 598M1313 598L1314 599L1313 598M1290 600L1291 601L1290 600M1309 600L1310 601L1309 600M1293 601C1294.25 601.685 1294.55 601.749 1296 602C1294.75 601.315 1294.45 601.251 1293 601M1304.67 601.333C1304.22 601.778 1305.28 601.722 1305.33 601.667C1305.78 601.222 1304.72 601.278 1304.67 601.333M272 701C273.248 701.685 273.548 701.749 275 702C273.752 701.315 273.452 701.251 272 701z"/>
<path style="fill:#55655f; stroke:none;" d="M275 701C276.769 701.779 278.036 701.912 280 702C278.231 701.221 276.964 701.088 275 701z"/>
<path style="fill:#7d8d89; stroke:none;" d="M192 730C190.068 736.906 181.375 740.512 178 747L175 746C173.132 750.621 169.606 755.154 169 760L166 759C164.34 761.917 163.082 764.823 162 768L458 768C453.618 760.42 447.069 755.997 440.424 750.631C424.834 738.04 406.701 728.695 388 721.576C339.397 703.071 285.744 693.89 235 709.036C219.206 713.75 206.329 722.342 192 730z"/>
<path style="fill:#55655f; stroke:none;" d="M299 701C300.769 701.779 302.036 701.912 304 702C302.231 701.221 300.964 701.088 299 701M264 702C265.248 702.685 265.548 702.749 267 703C265.752 702.315 265.452 702.251 264 702M310 702C311.769 702.779 313.036 702.912 315 703C313.231 702.221 311.964 702.088 310 702M318 703C319.506 703.683 320.315 703.826 322 704C320.494 703.317 319.685 703.174 318 703M252.667 704.333C252.222 704.778 253.278 704.722 253.333 704.667C253.778 704.222 252.722 704.278 252.667 704.333M325 704C326.248 704.685 326.548 704.749 328 705C326.752 704.315 326.452 704.251 325 704M248.667 705.333C248.222 705.778 249.278 705.722 249.333 705.667C249.778 705.222 248.722 705.278 248.667 705.333M331 705C332.248 705.685 332.548 705.749 334 706C332.752 705.315 332.452 705.251 331 705M336.667 706.333C336.222 706.778 337.278 706.722 337.333 706.667C337.778 706.222 336.722 706.278 336.667 706.333M240.667 707.333C240.222 707.778 241.278 707.722 241.333 707.667C241.778 707.222 240.722 707.278 240.667 707.333M341 707C342.248 707.685 342.548 707.749 344 708C342.752 707.315 342.452 707.251 341 707M236 708L237 709L236 708M233 709L234 710L233 709M230 710L231 711L230 710M354 710L355 711L354 710M227 711L228 712L227 711z"/>
<path style="fill:#066106; stroke:none;" d="M224 712L225 713L224 712z"/>
<path style="fill:#55655f; stroke:none;" d="M225 712L226 713L225 712M361 712L362 713L361 712M222 713L223 714L222 713M365 713L366 714L365 713M220 714L221 715L220 714z"/>
<path style="fill:#066106; stroke:none;" d="M217 715L218 716L217 715z"/>
<path style="fill:#55655f; stroke:none;" d="M371 715L372 716L371 715M215 716L216 717L215 716z"/>
<path style="fill:#066106; stroke:none;" d="M374 716L375 717L374 716z"/>
<path style="fill:#55655f; stroke:none;" d="M213 717L214 718L213 717M377 717L378 718L377 717M211 718L212 719L211 718M209 719L210 720L209 719M382 719L383 720L382 719z"/>
<path style="fill:#066106; stroke:none;" d="M207 720L208 721L207 720z"/>
<path style="fill:#55655f; stroke:none;" d="M385 720L386 721L385 720M206 721L207 722L206 721M387 721L388 722L387 721M204 722L205 723L204 722M390 722L391 723L390 722M202 723L203 724L202 723z"/>
<path style="fill:#066106; stroke:none;" d="M393 723L394 724L393 723z"/>
<path style="fill:#55655f; stroke:none;" d="M395 724L396 725L395 724M199 725L200 726L199 725M397 725L398 726L397 725z"/>
<path style="fill:#066106; stroke:none;" d="M197 726L198 727L197 726z"/>
<path style="fill:#55655f; stroke:none;" d="M198 726L199 727L198 726M196 727L197 728L196 727M401 727L402 728L401 727z"/>
<path style="fill:#066106; stroke:none;" d="M404 728L405 729L404 728z"/>
<path style="fill:#55655f; stroke:none;" d="M193 729L194 730L193 729M406 729L407 730L406 729z"/>
<path style="fill:#066106; stroke:none;" d="M408 730L409 731L408 730z"/>
<path style="fill:#8a9895; stroke:none;" d="M176 747C182.126 743.731 188.902 736.63 193 731C186.138 733.905 179.155 740.234 176 747z"/>
<path style="fill:#55655f; stroke:none;" d="M410 731L411 732L410 731M189 732L190 733L189 732z"/>
<path style="fill:#066106; stroke:none;" d="M412 732L413 733L412 732z"/>
<path style="fill:#55655f; stroke:none;" d="M188 733L189 734L188 733z"/>
<path style="fill:#066106; stroke:none;" d="M414 733L415 734L414 733z"/>
<path style="fill:#55655f; stroke:none;" d="M417 735L418 736L417 735z"/>
<path style="fill:#066106; stroke:none;" d="M184 736L185 737L184 736z"/>
<path style="fill:#55655f; stroke:none;" d="M419 736L420 737L419 736M183 737L184 738L183 737M421 737L422 738L421 737M182 738L183 739L182 738M422 738L423 739L422 738M181 739L182 740L181 739M424 739L425 740L424 739M180 740L181 741L180 740M426 740L427 741L426 740M179 741L180 742L179 741M178 742L179 743L178 742M429 742L430 743L429 742M177 743L178 744L177 743z"/>
<path style="fill:#066106; stroke:none;" d="M176 744L177 745L176 744z"/>
<path style="fill:#55655f; stroke:none;" d="M432 744L433 745L432 744M435 746L436 747L435 746M436 747L437 748L436 747M173 748L172 750C173.263 749.029 173.392 749.306 173 748z"/>
<path style="fill:#8a9895; stroke:none;" d="M173 749C170.825 751.833 165.802 756.805 169 760C169.883 756.06 173.598 753.128 173 749z"/>
<path style="fill:#55655f; stroke:none;" d="M439 749L440 750L439 749z"/>
<path style="fill:#8a9895; stroke:none;" d="M440 751L441 752L440 751z"/>
<path style="fill:#55655f; stroke:none;" d="M441 751L442 752L441 751M170 752L171 753L170 752M443 752L444 753L443 752M169 753L170 754L169 753M444 753L445 754L444 753M445 754L446 755L445 754M168 755L169 756L168 755z"/>
<path style="fill:#066106; stroke:none;" d="M167 756L168 757L167 756z"/>
<path style="fill:#55655f; stroke:none;" d="M166 758L167 759L166 758M456 765L457 766L456 765M162 766L163 767L162 766M457 766L458 767L457 766z"/>
<path style="fill:#066106; stroke:none;" d="M458 767L459 768L458 767z"/>
</svg>
