<?xml version="1.0" standalone="yes"?>
<svg xmlns="http://www.w3.org/2000/svg" width="1366" height="768">
<path style="fill:#ffffff; stroke:none;" d="M0 0L0 768L114 768L146 768C150.204 768 156.732 769.221 160.61 767.397C164.777 765.436 166.878 757.652 169.44 754C175.231 745.747 182.13 738.71 190 732.45C219.904 708.66 257.658 700.94 295 701C313.407 701.03 332.283 705.011 350 709.623C371.999 715.349 393.988 722.406 414 733.435C425.216 739.617 436.514 746.409 446.004 755.104C450.968 759.653 455.78 767.313 463 767.941C473.832 768.884 485.125 768 496 768L562 768L762 768L1366 768L1366 599L1366 548C1366 540.855 1367.75 531.076 1365.68 524.225C1364.4 519.972 1356.49 518.103 1353 515.934C1344.2 510.467 1336.11 503.098 1329.67 495C1306.84 466.299 1299.83 430.81 1300 395C1300.15 363.319 1313.08 327.937 1335.04 305C1340.67 299.119 1347.03 293.708 1354 289.464C1357.14 287.551 1362.75 286.298 1364.97 283.301C1366.58 281.136 1366 277.522 1366 275C1366 267.752 1366.37 263.079 1361 257.665C1349.14 245.716 1333.29 236.426 1319 227.796C1298.58 215.465 1278.1 204.184 1256 194.988C1180.36 163.512 1100.31 145.141 1019 135.286C994.602 132.328 970.014 131.815 946 126.116C899.795 115.15 860.347 87.5188 830.69 51C818.796 36.3548 805.299 18.3933 800 0L0 0z"/>
<path style="fill:#db3f01; stroke:none;" d="M800 0C805.269 18.2914 818.702 36.4584 830.576 51C860.109 87.1683 899.828 115.718 946 126.112C966.106 130.638 986.501 131.119 1007 133.169C1018.77 134.346 1030.23 137.268 1042 138.714C1049.96 139.691 1057.99 139.645 1065.91 141.245C1090.53 146.217 1115.54 150.439 1140 156.475C1196.03 170.301 1251.26 189.278 1302 216.953C1319.02 226.238 1335.44 237.586 1350.71 249.508C1355.9 253.552 1360.63 258.232 1366 262L1366 0L800 0z"/>
<path style="fill:#c1a99a; stroke:none;" d="M800 2L801 3L800 2M801 4L802 5L801 4M802 6L803 7L802 6z"/>
<path style="fill:#ea9058; stroke:none;" d="M803 8L804 9L803 8M804 10L805 11L804 10M805 12L806 13L805 12M806 14L807 15L806 14z"/>
<path style="fill:#7d8d89; stroke:none;" d="M807 16L808 17L807 16z"/>
<path style="fill:#c1a99a; stroke:none;" d="M807 17L808 18L807 17z"/>
<path style="fill:#ea9058; stroke:none;" d="M808 18L809 19L808 18M809 20L810 21L809 20M810 21L811 22L810 21M811.333 22.6667C811.278 22.7224 811.222 23.7776 811.667 23.3333C811.722 23.2778 811.778 22.2222 811.333 22.6667M813 26L814 27L813 26M814 28L815 29L814 28M815 29L816 30L815 29M817 33L818 34L817 33z"/>
<path style="fill:#c1a99a; stroke:none;" d="M818 35L819 36L818 35z"/>
<path style="fill:#ea9058; stroke:none;" d="M819 36L820 37L819 36M820 37L821 38L820 37M822 40L823 41L822 40M823 41L824 42L823 41M824 43L825 44L824 43M825 44L826 45L825 44z"/>
<path style="fill:#c1a99a; stroke:none;" d="M826 46L827 47L826 46M827 47L828 48L827 47M828 48L829 49L828 48z"/>
<path style="fill:#ea9058; stroke:none;" d="M829 49L830 50L829 49M830 50L831 51L830 50z"/>
<path style="fill:#c1a99a; stroke:none;" d="M832 53L833 54L832 53M833 54L834 55L833 54z"/>
<path style="fill:#ea9058; stroke:none;" d="M834 55L835 56L834 55z"/>
<path style="fill:#c1a99a; stroke:none;" d="M834 56L835 57L834 56z"/>
<path style="fill:#ea9058; stroke:none;" d="M835 57L836 58L835 57M836 58L837 59L836 58M839 61L840 62L839 61z"/>
<path style="fill:#c1a99a; stroke:none;" d="M840 63L841 64L840 63M842 65L843 66L842 65z"/>
<path style="fill:#ea9058; stroke:none;" d="M844 66L845 67L844 66M845 67L846 68L845 67M846 68L847 69L846 68z"/>
<path style="fill:#c1a99a; stroke:none;" d="M848 70L849 71L848 70z"/>
<path style="fill:#ea9058; stroke:none;" d="M849 71L850 72L849 71M850 72L851 73L850 72M851 73L852 74L851 73M852 74L853 75L852 74M853 75L854 76L853 75M854 76L855 77L854 76M857 79L858 80L857 79M858 80L859 81L858 80M859 81L860 82L859 81M860 82L861 83L860 82z"/>
<path style="fill:#c1a99a; stroke:none;" d="M862.667 84.3333C862.222 84.7777 863.278 84.7223 863.333 84.6667C863.778 84.222 862.722 84.2778 862.667 84.3333z"/>
<path style="fill:#ea9058; stroke:none;" d="M864 85L865 86L864 85z"/>
<path style="fill:#c1a99a; stroke:none;" d="M865 86L866 87L865 86M866 87L867 88L866 87z"/>
<path style="fill:#ea9058; stroke:none;" d="M868 88L869 89L868 88M869 89L870 90L869 89M870 90L871 91L870 90z"/>
<path style="fill:#c1a99a; stroke:none;" d="M872 92L873 93L872 92z"/>
<path style="fill:#ea9058; stroke:none;" d="M873 92L874 93L873 92M874 93L875 94L874 93z"/>
<path style="fill:#c1a99a; stroke:none;" d="M875 94L876 95L875 94z"/>
<path style="fill:#ea9058; stroke:none;" d="M877 95L878 96L877 95z"/>
<path style="fill:#7d8d89; stroke:none;" d="M879 96L880 97L879 96z"/>
<path style="fill:#ea9058; stroke:none;" d="M882 98L883 99L882 98z"/>
<path style="fill:#c1a99a; stroke:none;" d="M885 100L886 101L885 100z"/>
<path style="fill:#ea9058; stroke:none;" d="M888.667 102.333C888.222 102.778 889.278 102.722 889.333 102.667C889.778 102.222 888.722 102.278 888.667 102.333z"/>
<path style="fill:#c1a99a; stroke:none;" d="M889 103L890 104L889 103z"/>
<path style="fill:#ea9058; stroke:none;" d="M891 104L892 105L891 104M893 105L894 106L893 105M895 106L896 107L895 106z"/>
<path style="fill:#c1a99a; stroke:none;" d="M896 107L897 108L896 107z"/>
<path style="fill:#ea9058; stroke:none;" d="M897 107L898 108L897 107z"/>
<path style="fill:#c1a99a; stroke:none;" d="M899 108L900 109L899 108z"/>
<path style="fill:#ea9058; stroke:none;" d="M901 109L902 110L901 109z"/>
<path style="fill:#c1a99a; stroke:none;" d="M904 111L905 112L904 111z"/>
<path style="fill:#ea9058; stroke:none;" d="M905 111L906 112L905 111z"/>
<path style="fill:#c1a99a; stroke:none;" d="M909 113L910 114L909 113z"/>
<path style="fill:#ea9058; stroke:none;" d="M912 114L913 115L912 114M917 116L918 117L917 116z"/>
<path style="fill:#c1a99a; stroke:none;" d="M919 117L920 118L919 117z"/>
<path style="fill:#ea9058; stroke:none;" d="M922 118L923 119L922 118M924 119L925 120L924 119z"/>
<path style="fill:#7d8d89; stroke:none;" d="M927 120L928 121L927 120z"/>
<path style="fill:#ea9058; stroke:none;" d="M929 121L930 122L929 121z"/>
<path style="fill:#c1a99a; stroke:none;" d="M932 122L933 123L932 122z"/>
<path style="fill:#ea9058; stroke:none;" d="M939 124L940 125L939 124M943 125L944 126L943 125z"/>
<path style="fill:#c1a99a; stroke:none;" d="M947 126L948 127L947 126z"/>
<path style="fill:#ea9058; stroke:none;" d="M952 127C954.052 127.874 955.747 127.953 958 128C955.948 127.126 954.253 127.047 952 127z"/>
<path style="fill:#c1a99a; stroke:none;" d="M958 128L959 129L958 128z"/>
<path style="fill:#ea9058; stroke:none;" d="M959 128C960.506 128.683 961.315 128.826 963 129C961.494 128.317 960.685 128.174 959 128M963 129L964 130L963 129M968.667 130.333C968.222 130.778 969.278 130.722 969.333 130.667C969.778 130.222 968.722 130.278 968.667 130.333M979 131C982.432 132.44 986.3 132 990 132C986.568 130.56 982.7 131 979 131z"/>
<path style="fill:#c1a99a; stroke:none;" d="M991 132L992 133L991 132z"/>
<path style="fill:#ea9058; stroke:none;" d="M992 132C994.613 133.098 997.165 132.993 1000 133C997.387 131.902 994.836 132.007 992 132M1000 133C1003.16 134.327 1006.59 134 1010 134C1006.84 132.673 1003.41 133 1000 133z"/>
<path style="fill:#c1a99a; stroke:none;" d="M1010 134L1011 135L1010 134z"/>
<path style="fill:#ea9058; stroke:none;" d="M1011 134C1013.89 135.213 1016.87 134.998 1020 135C1017.11 133.787 1014.13 134.002 1011 134M1020 135L1021 136L1020 135M1027 136L1028 137L1027 136M1034 137L1035 138L1034 137z"/>
<path style="fill:#c1a99a; stroke:none;" d="M1040 138L1041 139L1040 138z"/>
<path style="fill:#ea9058; stroke:none;" d="M1048 139C1050.05 139.874 1051.75 139.953 1054 140C1051.95 139.126 1050.25 139.047 1048 139z"/>
<path style="fill:#c1a99a; stroke:none;" d="M1055 140L1056 141L1055 140z"/>
<path style="fill:#ea9058; stroke:none;" d="M1056 140C1057.77 140.779 1059.04 140.912 1061 141C1059.23 140.221 1057.96 140.088 1056 140z"/>
<path style="fill:#c1a99a; stroke:none;" d="M1061 141L1062 142L1061 141z"/>
<path style="fill:#ea9058; stroke:none;" d="M1062 141C1064.33 141.984 1066.46 141.981 1069 142C1066.67 141.016 1064.54 141.019 1062 141z"/>
<path style="fill:#c1a99a; stroke:none;" d="M1068 142L1069 143L1068 142z"/>
<path style="fill:#ea9058; stroke:none;" d="M1074 143C1075.51 143.683 1076.31 143.826 1078 144C1076.49 143.317 1075.69 143.174 1074 143z"/>
<path style="fill:#c1a99a; stroke:none;" d="M1079 144C1080.51 144.683 1081.31 144.826 1083 145C1081.49 144.317 1080.69 144.174 1079 144z"/>
<path style="fill:#ea9058; stroke:none;" d="M1092 146L1093 147L1092 146M1093 147C1094.77 147.779 1096.04 147.912 1098 148C1096.23 147.221 1094.96 147.088 1093 147z"/>
<path style="fill:#c1a99a; stroke:none;" d="M1098.67 148.333C1098.22 148.777 1099.28 148.723 1099.33 148.667C1099.78 148.222 1098.72 148.278 1098.67 148.333z"/>
<path style="fill:#ea9058; stroke:none;" d="M1100 148C1101.25 148.685 1101.55 148.749 1103 149C1101.75 148.315 1101.45 148.251 1100 148z"/>
<path style="fill:#c1a99a; stroke:none;" d="M1103 149L1104 150L1103 149z"/>
<path style="fill:#ea9058; stroke:none;" d="M1104 149C1105.51 149.683 1106.31 149.826 1108 150C1106.49 149.317 1105.69 149.174 1104 149M1108 150C1109.77 150.779 1111.04 150.912 1113 151C1111.23 150.221 1109.96 150.088 1108 150M1113 151C1114.77 151.779 1116.04 151.912 1118 152C1116.23 151.221 1114.96 151.088 1113 151z"/>
<path style="fill:#c1a99a; stroke:none;" d="M1118.67 152.333C1118.22 152.777 1119.28 152.722 1119.33 152.667C1119.78 152.222 1118.72 152.278 1118.67 152.333z"/>
<path style="fill:#ea9058; stroke:none;" d="M1120 152C1121.25 152.685 1121.55 152.749 1123 153C1121.75 152.315 1121.45 152.251 1120 152M1123 153C1124.77 153.779 1126.04 153.912 1128 154C1126.23 153.221 1124.96 153.088 1123 153M1128 154C1129.51 154.683 1130.31 154.826 1132 155C1130.49 154.317 1129.69 154.174 1128 154M1133 155C1134.25 155.685 1134.55 155.749 1136 156C1134.75 155.315 1134.45 155.251 1133 155M1137 156C1138.51 156.683 1139.31 156.826 1141 157C1139.49 156.317 1138.69 156.174 1137 156z"/>
<path style="fill:#c1a99a; stroke:none;" d="M1141 157C1142.25 157.685 1142.55 157.749 1144 158C1142.75 157.315 1142.45 157.251 1141 157z"/>
<path style="fill:#ea9058; stroke:none;" d="M1148 158L1149 159L1148 158z"/>
<path style="fill:#c1a99a; stroke:none;" d="M1148 159C1149.51 159.683 1150.31 159.826 1152 160C1150.49 159.317 1149.69 159.174 1148 159M1152 160C1153.25 160.685 1153.55 160.749 1155 161C1153.75 160.315 1153.45 160.251 1152 160z"/>
<path style="fill:#ea9058; stroke:none;" d="M1155 160L1156 161L1155 160M1163 162L1164 163L1163 162z"/>
<path style="fill:#c1a99a; stroke:none;" d="M1166 163L1167 164L1166 163M1168.67 164.333C1168.22 164.777 1169.28 164.722 1169.33 164.667C1169.78 164.222 1168.72 164.278 1168.67 164.333z"/>
<path style="fill:#ea9058; stroke:none;" d="M1170 164L1171 165L1170 164z"/>
<path style="fill:#c1a99a; stroke:none;" d="M1171.67 165.333C1171.22 165.778 1172.28 165.722 1172.33 165.667C1172.78 165.222 1171.72 165.278 1171.67 165.333z"/>
<path style="fill:#ea9058; stroke:none;" d="M1173 165L1174 166L1173 165M1174 166C1175.25 166.685 1175.55 166.749 1177 167C1175.75 166.315 1175.45 166.251 1174 166M1177 167C1178.25 167.685 1178.55 167.749 1180 168C1178.75 167.315 1178.45 167.251 1177 167z"/>
<path style="fill:#c1a99a; stroke:none;" d="M1180 168C1181.25 168.685 1181.55 168.749 1183 169C1181.75 168.315 1181.45 168.251 1180 168z"/>
<path style="fill:#ea9058; stroke:none;" d="M1183 168L1184 169L1183 168M1187 169L1188 170L1187 169M1190 170L1191 171L1190 170z"/>
<path style="fill:#c1a99a; stroke:none;" d="M1192.67 171.333C1192.22 171.778 1193.28 171.722 1193.33 171.667C1193.78 171.222 1192.72 171.278 1192.67 171.333z"/>
<path style="fill:#ea9058; stroke:none;" d="M1197 172L1198 173L1197 172z"/>
<path style="fill:#c1a99a; stroke:none;" d="M1197 173C1198.25 173.685 1198.55 173.749 1200 174C1198.75 173.315 1198.45 173.251 1197 173M1202 174L1203 175L1202 174z"/>
<path style="fill:#ea9058; stroke:none;" d="M1205 175L1206 176L1205 175M1209.67 176.333C1209.22 176.777 1210.28 176.723 1210.33 176.667C1210.78 176.222 1209.72 176.278 1209.67 176.333M1211 177L1212 178L1211 177M1214 178L1215 179L1214 178z"/>
<path style="fill:#c1a99a; stroke:none;" d="M1216 179L1217 180L1216 179z"/>
<path style="fill:#ea9058; stroke:none;" d="M1219 180L1220 181L1219 180M1222 181L1223 182L1222 181M1225 182L1226 183L1225 182M1228 183L1229 184L1228 183z"/>
<path style="fill:#c1a99a; stroke:none;" d="M1230 184L1231 185L1230 184z"/>
<path style="fill:#6a6c6b; stroke:none;" d="M1231 184L1232 185L1231 184z"/>
<path style="fill:#ea9058; stroke:none;" d="M1233 185L1234 186L1233 185z"/>
<path style="fill:#c1a99a; stroke:none;" d="M1235 186L1236 187L1235 186z"/>
<path style="fill:#ea9058; stroke:none;" d="M1238 187L1239 188L1238 187M1241 188L1242 189L1241 188M1243 189L1244 190L1243 189z"/>
<path style="fill:#c1a99a; stroke:none;" d="M1250 192L1251 193L1250 192z"/>
<path style="fill:#ea9058; stroke:none;" d="M1251 192L1252 193L1251 192z"/>
<path style="fill:#c1a99a; stroke:none;" d="M1252 193L1253 194L1252 193M1254 194L1255 195L1254 194z"/>
<path style="fill:#ea9058; stroke:none;" d="M1255 194L1256 195L1255 194M1257 195L1258 196L1257 195z"/>
<path style="fill:#c1a99a; stroke:none;" d="M1259 196L1260 197L1259 196z"/>
<path style="fill:#ea9058; stroke:none;" d="M1264.67 198.333C1264.22 198.778 1265.28 198.722 1265.33 198.667C1265.78 198.222 1264.72 198.278 1264.67 198.333M1267 199L1268 200L1267 199z"/>
<path style="fill:#c1a99a; stroke:none;" d="M1268 200L1269 201L1268 200z"/>
<path style="fill:#ea9058; stroke:none;" d="M1269.67 200.333C1269.22 200.777 1270.28 200.722 1270.33 200.667C1270.78 200.222 1269.72 200.278 1269.67 200.333z"/>
<path style="fill:#c1a99a; stroke:none;" d="M1271 201L1272 202L1271 201z"/>
<path style="fill:#ea9058; stroke:none;" d="M1273 202L1274 203L1273 202z"/>
<path style="fill:#c1a99a; stroke:none;" d="M1274 203L1275 204L1274 203z"/>
<path style="fill:#ea9058; stroke:none;" d="M1277 204L1278 205L1277 204M1279.67 205.333C1279.22 205.778 1280.28 205.722 1280.33 205.667C1280.78 205.222 1279.72 205.278 1279.67 205.333M1282 206L1283 207L1282 206M1283 207L1284 208L1283 207z"/>
<path style="fill:#c1a99a; stroke:none;" d="M1284 208L1285 209L1284 208z"/>
<path style="fill:#ea9058; stroke:none;" d="M1285 208L1286 209L1285 208M1287 209L1288 210L1287 209M1288.67 210.333C1288.22 210.777 1289.28 210.723 1289.33 210.667C1289.78 210.222 1288.72 210.278 1288.67 210.333M1291 211L1292 212L1291 211z"/>
<path style="fill:#c1a99a; stroke:none;" d="M1292 212L1293 213L1292 212z"/>
<path style="fill:#ea9058; stroke:none;" d="M1293 212L1294 213L1293 212M1294.67 213.333C1294.22 213.778 1295.28 213.722 1295.33 213.667C1295.78 213.222 1294.72 213.278 1294.67 213.333z"/>
<path style="fill:#c1a99a; stroke:none;" d="M1296 214L1297 215L1296 214z"/>
<path style="fill:#ea9058; stroke:none;" d="M1297 214L1298 215L1297 214M1298 215L1299 216L1298 215M1301 216L1302 217L1301 216M1302.67 217.333C1302.22 217.777 1303.28 217.723 1303.33 217.667C1303.78 217.222 1302.72 217.278 1302.67 217.333z"/>
<path style="fill:#c1a99a; stroke:none;" d="M1306 219L1307 220L1306 219M1307 220L1308 221L1307 220z"/>
<path style="fill:#ea9058; stroke:none;" d="M1309 221L1310 222L1309 221z"/>
<path style="fill:#c1a99a; stroke:none;" d="M1310 222L1311 223L1310 222M1313 224L1314 225L1313 224z"/>
<path style="fill:#ea9058; stroke:none;" d="M1315 225L1316 226L1315 225z"/>
<path style="fill:#c1a99a; stroke:none;" d="M1316 226L1317 227L1316 226z"/>
<path style="fill:#ea9058; stroke:none;" d="M1317 226L1318 227L1317 226M1318 227L1319 228L1318 227M1320 228L1321 229L1320 228z"/>
<path style="fill:#c1a99a; stroke:none;" d="M1321 229L1322 230L1321 229z"/>
<path style="fill:#ea9058; stroke:none;" d="M1322 229L1323 230L1322 229z"/>
<path style="fill:#c1a99a; stroke:none;" d="M1323 230L1324 231L1323 230z"/>
<path style="fill:#ea9058; stroke:none;" d="M1324 230L1325 231L1324 230z"/>
<path style="fill:#c1a99a; stroke:none;" d="M1325 231L1326 232L1325 231M1327 232L1328 233L1327 232z"/>
<path style="fill:#ea9058; stroke:none;" d="M1330 234L1331 235L1330 234M1332 235L1333 236L1332 235z"/>
<path style="fill:#c1a99a; stroke:none;" d="M1333 236L1334 237L1333 236z"/>
<path style="fill:#ea9058; stroke:none;" d="M1336 238L1337 239L1336 238M1337 239L1338 240L1337 239z"/>
<path style="fill:#c1a99a; stroke:none;" d="M1338 240L1339 241L1338 240M1339 241L1340 242L1339 241z"/>
<path style="fill:#ea9058; stroke:none;" d="M1341 242L1342 243L1341 242M1342 243L1343 244L1342 243z"/>
<path style="fill:#c1a99a; stroke:none;" d="M1343 244L1344 245L1343 244z"/>
<path style="fill:#ea9058; stroke:none;" d="M1345 245L1346 246L1345 245M1346 246L1347 247L1346 246M1349 248L1350 249L1349 248z"/>
<path style="fill:#c1a99a; stroke:none;" d="M1350 249L1351 250L1350 249z"/>
<path style="fill:#ea9058; stroke:none;" d="M1351 249L1352 250L1351 249z"/>
<path style="fill:#c1a99a; stroke:none;" d="M1354 252L1355 253L1354 252M1355 253L1356 254L1355 253z"/>
<path style="fill:#ea9058; stroke:none;" d="M1360 257L1361 258L1360 257z"/>
<path style="fill:#c1a99a; stroke:none;" d="M1362 259L1363 260L1362 259M1363 260L1364 261L1363 260M1364 261L1365 262L1364 261z"/>
<path style="fill:#7d8d89; stroke:none;" d="M1364 284L1365 285L1364 284z"/>
<path style="fill:#212121; stroke:none;" d="M1365 284C1351.64 291.123 1340.33 298.287 1330.3 310C1298.85 346.743 1293.75 404.029 1306.58 449C1315.47 480.162 1334.79 509.891 1366 522L1366 354L1366 306C1366 299.314 1367.6 290.194 1365 284z"/>
<path style="fill:#c1a99a; stroke:none;" d="M1361 285L1362 286L1361 285z"/>
<path style="fill:#6a6c6b; stroke:none;" d="M1362 285L1363 286L1362 285z"/>
<path style="fill:#c1a99a; stroke:none;" d="M1359 286L1360 287L1359 286M1357 287L1358 288L1357 287M1355 288L1356 289L1355 288M1353 289L1354 290L1353 289z"/>
<path style="fill:#6a6c6b; stroke:none;" d="M1354 289L1355 290L1354 289z"/>
<path style="fill:#7d8d89; stroke:none;" d="M1352 290L1353 291L1352 290z"/>
<path style="fill:#c1a99a; stroke:none;" d="M1350 291L1351 292L1350 291z"/>
<path style="fill:#6a6c6b; stroke:none;" d="M1349 292L1350 293L1349 292z"/>
<path style="fill:#7d8d89; stroke:none;" d="M1346 294L1347 295L1346 294z"/>
<path style="fill:#6a6c6b; stroke:none;" d="M1345 295L1346 296L1345 295z"/>
<path style="fill:#c1a99a; stroke:none;" d="M1342 297L1343 298L1342 297M1341 298L1342 299L1341 298z"/>
<path style="fill:#7d8d89; stroke:none;" d="M1340 299L1341 300L1340 299M1339 300L1340 301L1339 300z"/>
<path style="fill:#6a6c6b; stroke:none;" d="M1338 301L1339 302L1338 301M1337 302L1338 303L1337 302M1336 303L1337 304L1336 303M1335 304L1336 305L1335 304M1334 305L1335 306L1334 305z"/>
<path style="fill:#7d8d89; stroke:none;" d="M1333 306L1334 307L1333 306M1332 307L1333 308L1332 307z"/>
<path style="fill:#c1a99a; stroke:none;" d="M1331 308L1332 309L1331 308z"/>
<path style="fill:#6a6c6b; stroke:none;" d="M1328 312L1329 313L1328 312z"/>
<path style="fill:#c1a99a; stroke:none;" d="M1327 313L1328 314L1327 313z"/>
<path style="fill:#7d8d89; stroke:none;" d="M1325 316L1326 317L1325 316z"/>
<path style="fill:#6a6c6b; stroke:none;" d="M1323 319L1324 320L1323 319z"/>
<path style="fill:#c1a99a; stroke:none;" d="M1322 320L1323 321L1322 320z"/>
<path style="fill:#7d8d89; stroke:none;" d="M1321 322L1322 323L1321 322z"/>
<path style="fill:#6a6c6b; stroke:none;" d="M1320 324L1321 325L1320 324z"/>
<path style="fill:#c1a99a; stroke:none;" d="M1319 325L1320 326L1319 325z"/>
<path style="fill:#6a6c6b; stroke:none;" d="M1319 326L1320 327L1319 326z"/>
<path style="fill:#c1a99a; stroke:none;" d="M1318 327L1319 328L1318 327z"/>
<path style="fill:#7d8d89; stroke:none;" d="M1317 329L1318 330L1317 329z"/>
<path style="fill:#6a6c6b; stroke:none;" d="M1316 331L1317 332L1316 331M1315 333L1316 334L1315 333z"/>
<path style="fill:#7d8d89; stroke:none;" d="M1314 335L1315 336L1314 335z"/>
<path style="fill:#c1a99a; stroke:none;" d="M1313 337L1314 338L1313 337M1312 339L1313 340L1312 339z"/>
<path style="fill:#7d8d89; stroke:none;" d="M1311 342L1312 343L1311 342z"/>
<path style="fill:#c1a99a; stroke:none;" d="M1310 344L1311 345L1310 344z"/>
<path style="fill:#6a6c6b; stroke:none;" d="M1310 345L1311 346L1310 345z"/>
<path style="fill:#7d8d89; stroke:none;" d="M1309 347L1310 348L1309 347M1308 350L1309 351L1308 350z"/>
<path style="fill:#c1a99a; stroke:none;" d="M1307 352L1308 353L1307 352z"/>
<path style="fill:#7d8d89; stroke:none;" d="M1307 353L1308 354L1307 353M1306 356L1307 357L1306 356z"/>
<path style="fill:#6a6c6b; stroke:none;" d="M1306 357L1307 358L1306 357z"/>
<path style="fill:#c1a99a; stroke:none;" d="M1305 359L1306 360L1305 359M1304 363L1305 364L1304 363z"/>
<path style="fill:#6a6c6b; stroke:none;" d="M1304 364L1305 365L1304 364z"/>
<path style="fill:#7d8d89; stroke:none;" d="M1303 368L1304 369L1303 368z"/>
<path style="fill:#6a6c6b; stroke:none;" d="M1303 369L1304 370L1303 369z"/>
<path style="fill:#c1a99a; stroke:none;" d="M1302 373L1303 374L1302 373z"/>
<path style="fill:#7d8d89; stroke:none;" d="M1301.33 379.667C1301.28 379.722 1301.22 380.778 1301.67 380.333C1301.72 380.277 1301.78 379.223 1301.33 379.667z"/>
<path style="fill:#c1a99a; stroke:none;" d="M1300.33 387.667C1300.28 387.722 1300.22 388.778 1300.67 388.333C1300.72 388.277 1300.78 387.222 1300.33 387.667z"/>
<path style="fill:#7d8d89; stroke:none;" d="M1300 389L1300 392C1300.7 390.446 1300.7 390.554 1300 389z"/>
<path style="fill:#6a6c6b; stroke:none;" d="M1300 392L1300 395C1300.7 393.446 1300.7 393.554 1300 392M1300 411L1300 416C1300.83 413.97 1300.83 413.03 1300 411z"/>
<path style="fill:#c1a99a; stroke:none;" d="M1300.33 416.667C1300.28 416.722 1300.22 417.778 1300.67 417.333C1300.72 417.277 1300.78 416.222 1300.33 416.667z"/>
<path style="fill:#7d8d89; stroke:none;" d="M1301.33 424.667C1301.28 424.722 1301.22 425.778 1301.67 425.333C1301.72 425.277 1301.78 424.222 1301.33 424.667z"/>
<path style="fill:#6a6c6b; stroke:none;" d="M1302.33 430.667C1302.28 430.722 1302.22 431.778 1302.67 431.333C1302.72 431.277 1302.78 430.222 1302.33 430.667z"/>
<path style="fill:#c1a99a; stroke:none;" d="M1302.33 432.667C1302.28 432.722 1302.22 433.778 1302.67 433.333C1302.72 433.278 1302.78 432.222 1302.33 432.667z"/>
<path style="fill:#6a6c6b; stroke:none;" d="M1303 436L1304 437L1303 436z"/>
<path style="fill:#7d8d89; stroke:none;" d="M1303 437L1304 438L1303 437z"/>
<path style="fill:#6a6c6b; stroke:none;" d="M1304 441L1305 442L1304 441z"/>
<path style="fill:#c1a99a; stroke:none;" d="M1304 442L1305 443L1304 442z"/>
<path style="fill:#6a6c6b; stroke:none;" d="M1305 445L1306 446L1305 445z"/>
<path style="fill:#c1a99a; stroke:none;" d="M1305 446L1306 447L1305 446z"/>
<path style="fill:#6a6c6b; stroke:none;" d="M1306 448L1307 449L1306 448z"/>
<path style="fill:#7d8d89; stroke:none;" d="M1306 449L1307 450L1306 449M1307 452L1308 453L1307 452z"/>
<path style="fill:#c1a99a; stroke:none;" d="M1307 453L1308 454L1307 453z"/>
<path style="fill:#6a6c6b; stroke:none;" d="M1308 455L1309 456L1308 455z"/>
<path style="fill:#7d8d89; stroke:none;" d="M1309 458L1310 459L1309 458z"/>
<path style="fill:#c1a99a; stroke:none;" d="M1310 461L1311 462L1310 461z"/>
<path style="fill:#6a6c6b; stroke:none;" d="M1311 463L1312 464L1311 463z"/>
<path style="fill:#c1a99a; stroke:none;" d="M1312 466L1313 467L1312 466z"/>
<path style="fill:#7d8d89; stroke:none;" d="M1313 468L1314 469L1313 468M1314 470L1315 471L1314 470z"/>
<path style="fill:#6a6c6b; stroke:none;" d="M1315 472L1316 473L1315 472M1316 474L1317 475L1316 474z"/>
<path style="fill:#7d8d89; stroke:none;" d="M1317 476L1318 477L1317 476M1318 478L1319 479L1318 478z"/>
<path style="fill:#c1a99a; stroke:none;" d="M1319 480L1320 481L1319 480z"/>
<path style="fill:#6a6c6b; stroke:none;" d="M1320 481L1321 482L1320 481z"/>
<path style="fill:#c1a99a; stroke:none;" d="M1320 482L1321 483L1320 482z"/>
<path style="fill:#7d8d89; stroke:none;" d="M1321 483L1322 484L1321 483z"/>
<path style="fill:#c1a99a; stroke:none;" d="M1322 485L1323 486L1322 485z"/>
<path style="fill:#6a6c6b; stroke:none;" d="M1323 486L1324 487L1323 486z"/>
<path style="fill:#c1a99a; stroke:none;" d="M1324 488L1325 489L1324 488z"/>
<path style="fill:#7d8d89; stroke:none;" d="M1325 489L1326 490L1325 489z"/>
<path style="fill:#6a6c6b; stroke:none;" d="M1326 490L1327 491L1326 490z"/>
<path style="fill:#c1a99a; stroke:none;" d="M1327 492L1328 493L1327 492z"/>
<path style="fill:#7d8d89; stroke:none;" d="M1328 493L1329 494L1328 493z"/>
<path style="fill:#6a6c6b; stroke:none;" d="M1329 494L1330 495L1329 494z"/>
<path style="fill:#c1a99a; stroke:none;" d="M1330 496L1331 497L1330 496M1331 497L1332 498L1331 497M1332 498L1333 499L1332 498z"/>
<path style="fill:#7d8d89; stroke:none;" d="M1333 499L1334 500L1333 499z"/>
<path style="fill:#6a6c6b; stroke:none;" d="M1334 500L1335 501L1334 500M1335 501L1336 502L1335 501M1336 502L1337 503L1336 502M1337 503L1338 504L1337 503M1338 504L1339 505L1338 504M1339 505L1340 506L1339 505z"/>
<path style="fill:#7d8d89; stroke:none;" d="M1340 506L1341 507L1340 506z"/>
<path style="fill:#c1a99a; stroke:none;" d="M1341 507L1342 508L1341 507M1342 508L1343 509L1342 508z"/>
<path style="fill:#6a6c6b; stroke:none;" d="M1345 510L1346 511L1345 510z"/>
<path style="fill:#7d8d89; stroke:none;" d="M1346 511L1347 512L1346 511z"/>
<path style="fill:#c1a99a; stroke:none;" d="M1347 512L1348 513L1347 512z"/>
<path style="fill:#6a6c6b; stroke:none;" d="M1349 513L1350 514L1349 513z"/>
<path style="fill:#c1a99a; stroke:none;" d="M1350 514L1351 515L1350 514z"/>
<path style="fill:#6a6c6b; stroke:none;" d="M1352 515L1353 516L1352 515z"/>
<path style="fill:#c1a99a; stroke:none;" d="M1353 516L1354 517L1353 516z"/>
<path style="fill:#6a6c6b; stroke:none;" d="M1354 516L1355 517L1354 516z"/>
<path style="fill:#c1a99a; stroke:none;" d="M1355 517L1356 518L1355 517M1357 518L1358 519L1357 518M1359 519L1360 520L1359 519M1361 520L1362 521L1361 520z"/>
<path style="fill:#6a6c6b; stroke:none;" d="M1362 520L1363 521L1362 520z"/>
<path style="fill:#7d8d89; stroke:none;" d="M1364 521L1365 522L1364 521z"/>
<path style="fill:#01df01; stroke:none;" d="M1294 542.468C1263.08 548.301 1262.49 594.317 1293 601.319C1297.14 602.27 1301.83 602.32 1306 601.532C1336.94 595.695 1337.52 549.687 1307 542.681C1302.86 541.73 1298.17 541.68 1294 542.468z"/>
<path style="fill:#c1a99a; stroke:none;" d="M1282 547L1283 548L1282 547M1317 547L1318 548L1317 547M1275 554L1276 555L1275 554M1271 562L1272 563L1271 562M1328 562L1329 563L1328 562M1271 581L1272 582L1271 581M1328 581L1329 582L1328 581M1282 596L1283 597L1282 596M1317 596L1318 597L1317 596M272 701C274.613 702.098 277.165 701.993 280 702C277.387 700.902 274.836 701.007 272 701z"/>
<path style="fill:#7d8d89; stroke:none;" d="M162 768L458 768C453.645 760.465 446.835 755.097 440 749.884C426.525 739.607 411.562 731.38 396 724.72C339.944 700.729 269.566 689.401 213 717.753C191.976 728.291 169.878 744.902 162 768z"/>
<path style="fill:#c1a99a; stroke:none;" d="M299 701C300.769 701.779 302.036 701.912 304 702C302.231 701.221 300.964 701.088 299 701M264 702C265.248 702.685 265.548 702.749 267 703C265.752 702.315 265.452 702.251 264 702M309 702C310.769 702.779 312.036 702.912 314 703C312.231 702.221 310.964 702.088 309 702M318.667 703.333C318.222 703.778 319.278 703.722 319.333 703.667C319.778 703.222 318.722 703.278 318.667 703.333M252.667 704.333C252.222 704.778 253.278 704.722 253.333 704.667C253.778 704.222 252.722 704.278 252.667 704.333M326.667 704.333C326.222 704.778 327.278 704.722 327.333 704.667C327.778 704.222 326.722 704.278 326.667 704.333M331 705C332.248 705.685 332.548 705.749 334 706C332.752 705.315 332.452 705.251 331 705M243.667 706.333C243.222 706.778 244.278 706.722 244.333 706.667C244.778 706.222 243.722 706.278 243.667 706.333M341 707C342.248 707.685 342.548 707.749 344 708C342.752 707.315 342.452 707.251 341 707M236 708L237 709L236 708M233 709L234 710L233 709M227 711L228 712L227 711M224.667 712.333C224.222 712.778 225.278 712.722 225.333 712.667C225.778 712.222 224.722 712.278 224.667 712.333M361 712L362 713L361 712M365 713L366 714L365 713M217 715L218 716L217 715M371 715L372 716L371 715M215 716L216 717L215 716M374 716L375 717L374 716M213 717L214 718L213 717M377 717L378 718L377 717M211 718L212 719L211 718M209 719L210 720L209 719M207 720L208 721L207 720M385 720L386 721L385 720M387 721L388 722L387 721M204 722L205 723L204 722M390 722L391 723L390 722M202 723L203 724L202 723M395 724L396 725L395 724M199 725L200 726L199 725M397 725L398 726L397 725M198 726L199 727L198 726M196 727L197 728L196 727M404 728L405 729L404 728M193 729L194 730L193 729M406 729L407 730L406 729M410 731L411 732L410 731M189 732L190 733L189 732M412 732L413 733L412 732M188 733L189 734L188 733M414 733L415 734L414 733M417 735L418 736L417 735M419 736L420 737L419 736M183 737L184 738L183 737M421 737L422 738L421 737M182 738L183 739L182 738M423 738L424 739L423 738M181 739L182 740L181 739M424 739L425 740L424 739M180 740L181 741L180 740M426 740L427 741L426 740M179 741L180 742L179 741M178 742L179 743L178 742M429 742L430 743L429 742M177 743L178 744L177 743M432 744L433 745L432 744M435 746L436 747L435 746M436 747L437 748L436 747M173 748L174 749L173 748M172 749L173 750L172 749M439 749L440 750L439 749M443 752L444 753L443 752M169 753L170 754L169 753M444 753L445 754L444 753M445 754L446 755L445 754M167 756L168 757L167 756M166 758L167 759L166 758M456 765L457 766L456 765M162 766L163 767L162 766M457 766L458 767L457 766M458 767L459 768L458 767z"/>
</svg>
