<?xml version="1.0" standalone="yes"?>
<svg xmlns="http://www.w3.org/2000/svg" width="1080" height="607">
<path style="fill:#ffffff; stroke:none;" d="M0 0L0 607L90 607L115 607C118.432 607 123.427 607.893 126.61 606.397C130.087 604.761 131.925 599.018 134.042 596C138.555 589.571 143.925 584.195 150 579.261C172.827 560.721 202.154 553.954 231 554C264.115 554.053 298.836 565.043 328 580.109C336.879 584.695 345.568 590.48 353 597.171C356.894 600.676 360.443 606.432 366.039 606.941C391.563 609.265 418.359 607 444 607L602 607L1080 607L1080 470L1080 431C1080 426.287 1081.43 418.723 1079.4 414.39C1078.11 411.653 1074.45 410.533 1072 409.127C1067.81 406.722 1063.9 403.862 1060.29 400.65C1050.5 391.938 1044.49 381.123 1038 370C1026.05 374.008 1015.99 378.437 1003 376.572C995.452 375.488 988.444 373.042 982 368.91C975.848 364.965 970.423 359.982 966.209 354C943.045 321.119 964.511 277.218 1003 270.464C1014.07 268.521 1024.87 272.013 1035 276C1038.29 262.145 1048.09 247.027 1059 238C1049.17 229.459 1037.28 222.597 1026 216.128C1006.5 204.944 986.853 195.274 966.286 186.24C917.807 164.946 866.779 151.892 815 141.551C799.235 138.402 783.93 134.544 768 132.285C751.056 129.883 734.026 126.878 717 125.169C690.26 122.485 663.378 121.012 637 115.486C627.008 113.393 618.36 108.686 609 104.975C579.849 93.4177 552.884 75.1686 531.899 51.5718C521.375 39.7377 512.465 27.1544 503.71 14C501.056 10.0123 498.829 1.75452 493.815 0.317871C489.106 -1.03119 482.873 0 478 0L446 0L341 0L0 0z"/>
<path style="fill:#dc3a01; stroke:none;" d="M496 0C502.355 15.2598 513.172 29.3027 523.576 42C552.826 77.7004 593.109 103.882 638 115.105C651.332 118.438 665.283 120.971 679 121.91C684.652 122.298 690.356 121.633 696 122.17C714.904 123.969 734.087 126.964 753 129.286C773.435 131.796 793.77 136.511 814 140.551C848.374 147.416 882.951 155.167 916 166.695C948.426 178.006 982.142 189.984 1011.91 207.309C1022.22 213.31 1033.2 219.397 1042.99 226.216C1047.22 229.164 1052.65 235.49 1058 236.109C1061.16 236.475 1063.79 233.441 1066.17 231.814C1070.43 228.903 1075.04 226.429 1080 225L1080 0L496 0z"/>
<path style="fill:#eaab85; stroke:none;" d="M496 1L497 2L496 1M500 9L501 10L500 9M501 10L502 11L501 10M502 12L503 13L502 12M503 13L504 14L503 13M504.333 14.6667C504.278 14.7219 504.222 15.778 504.667 15.3333C504.722 15.2776 504.778 14.2224 504.333 14.6667M505 16L506 17L505 16M507 20L508 21L507 20M508 21L509 22L508 21M509 23L510 24L509 23M510 24L511 25L510 24M514 30L515 31L514 30M515 31L516 32L515 31M517 34L518 35L517 34M518 35L519 36L518 35M519 37L520 38L519 37M520 38L521 39L520 38M521 39L522 40L521 39M522 40L523 41L522 40M523 41L524 42L523 41M530 50L531 51L530 50M531 51L532 52L531 51M533 53L534 54L533 53M534 54L535 55L534 54M535 55L536 56L535 55M536 56L537 57L536 56M540 60L541 61L540 60M542 61L543 62L542 61M543 62L544 63L543 62M544 63L545 64L544 63M545 64L545 66L547 66C546.455 64.3649 546.635 64.545 545 64M547 66L548 67L547 66M548 67L549 68L548 67M549 68L550 69L549 68M550 69L551 70L550 69M552 71L553 72L552 71M553 72L554 73L553 72M554.667 73.3333C554.222 73.7777 555.278 73.7223 555.333 73.6667C555.778 73.222 554.722 73.2778 554.667 73.3333M556 74L557 75L556 74M560 77L561 78L560 77M561 78L562 79L561 78M565 81L566 82L565 81M566 82L567 83L566 82M567.667 83.3333C567.222 83.7778 568.278 83.7222 568.333 83.6667C568.778 83.222 567.722 83.2778 567.667 83.3333M569 84L570 85L569 84M572 86L573 87L572 86M576 88L577 89L576 88M577 89L578 90L577 89M579 90L580 91L579 90M582 92L583 93L582 92M583.667 93.3333C583.222 93.778 584.278 93.7221 584.333 93.6667C584.778 93.222 583.722 93.2778 583.667 93.3333M585 94L586 95L585 94M589 96L590 97L589 96M591 97L592 98L591 97M595.667 99.3333C595.222 99.7776 596.278 99.7223 596.333 99.6667C596.778 99.222 595.722 99.2779 595.667 99.3333M597 100L598 101L597 100M599.667 101.333C599.222 101.778 600.278 101.722 600.333 101.667C600.778 101.222 599.722 101.278 599.667 101.333M601 102L602 103L601 102M603.667 103.333C603.222 103.778 604.278 103.722 604.333 103.667C604.778 103.222 603.722 103.278 603.667 103.333M610 105L611 106L610 105M612 106L613 107L612 106M613 107C614.248 107.685 614.548 107.749 616 108C614.752 107.315 614.452 107.251 613 107M616.667 108.333C616.223 108.777 617.278 108.722 617.333 108.667C617.778 108.222 616.722 108.278 616.667 108.333M618 109C619.248 109.685 619.548 109.749 621 110C619.752 109.315 619.452 109.251 618 109M621.667 110.333C621.222 110.778 622.278 110.722 622.333 110.667C622.778 110.222 621.722 110.278 621.667 110.333M623 111C624.248 111.685 624.548 111.749 626 112C624.752 111.315 624.451 111.251 623 111M626 112C627.248 112.685 627.548 112.749 629 113C627.752 112.315 627.451 112.251 626 112M629 113C630.506 113.683 631.315 113.826 633 114C631.494 113.317 630.685 113.174 629 113M633 114C634.248 114.685 634.548 114.749 636 115C634.752 114.315 634.452 114.251 633 114M636 115C637.506 115.683 638.315 115.826 640 116C638.494 115.317 637.685 115.174 636 115M644 116L645 117L644 116M666 120L667 121L666 120M689 122C692.163 123.327 695.586 123 699 123C695.837 121.673 692.414 122 689 122M699 123C702.163 124.327 705.586 124 709 124C705.837 122.673 702.414 123 699 123M719 125L720 126L719 125M740 128L741 129L740 128M747 129C751.24 130.829 756.401 130.962 761 131C756.677 129.059 751.694 129.013 747 129M761 131C763.613 132.098 766.165 131.993 769 132C766.387 130.902 763.835 131.007 761 131M774 133C775.769 133.779 777.036 133.912 779 134C777.231 133.221 775.964 133.088 774 133M779 134C780.769 134.779 782.036 134.912 784 135C782.231 134.221 780.964 134.088 779 134M794 137C795.769 137.779 797.036 137.912 799 138C797.231 137.221 795.964 137.088 794 137M799 138C800.769 138.779 802.036 138.912 804 139C802.231 138.221 800.964 138.088 799 138M804 139C806.052 139.874 807.747 139.953 810 140C807.948 139.126 806.253 139.047 804 139M810 140C811.506 140.683 812.315 140.826 814 141C812.494 140.317 811.685 140.174 810 140M814 141C816.052 141.874 817.747 141.953 820 142C817.948 141.126 816.253 141.047 814 141M820 142C821.769 142.779 823.036 142.912 825 143C823.231 142.221 821.964 142.088 820 142M825 143C826.506 143.683 827.315 143.826 829 144C827.494 143.317 826.685 143.174 825 143M830 144C831.769 144.779 833.036 144.912 835 145C833.231 144.221 831.964 144.088 830 144M835 145C836.506 145.683 837.315 145.826 839 146C837.494 145.317 836.685 145.174 835 145M846 147L847 148L846 147M854 149L855 150L854 149M858 150L859 151L858 150M862 151L863 152L862 151M866 152C867.506 152.683 868.315 152.826 870 153C868.494 152.317 867.685 152.174 866 152M870 153C871.377 153.911 872.44 154.404 874 155C872.686 153.382 872.123 153.307 870 153M883 157L884 158L883 157M891 159C892.248 159.685 892.548 159.749 894 160C892.752 159.315 892.452 159.251 891 159M894 160C895.506 160.683 896.315 160.826 898 161C896.494 160.317 895.685 160.174 894 160M901 162L902 163L901 162M904 163C905.248 163.685 905.548 163.749 907 164C905.752 163.315 905.452 163.251 904 163M907.667 164.333C907.222 164.778 908.278 164.722 908.333 164.667C908.778 164.222 907.722 164.278 907.667 164.333M915 166L916 167L915 166M916 167C917.248 167.685 917.548 167.749 919 168C917.752 167.315 917.452 167.251 916 167M919.667 168.333C919.222 168.778 920.278 168.722 920.333 168.667C920.778 168.222 919.722 168.278 919.667 168.333M922.667 169.333C922.222 169.778 923.278 169.722 923.333 169.667C923.778 169.222 922.722 169.278 922.667 169.333M924 170C925.248 170.685 925.548 170.749 927 171C925.752 170.315 925.452 170.251 924 170M927 171C928.248 171.685 928.548 171.749 930 172C928.752 171.315 928.452 171.251 927 171M930 172C931.248 172.685 931.549 172.749 933 173C931.752 172.315 931.452 172.251 930 172M934.667 173.333C934.223 173.777 935.278 173.722 935.333 173.667C935.778 173.222 934.722 173.278 934.667 173.333M936.667 174.333C936.223 174.777 937.278 174.722 937.333 174.667C937.778 174.222 936.722 174.278 936.667 174.333M938 175C939.248 175.685 939.548 175.749 941 176C939.752 175.315 939.452 175.251 938 175z"/>
<path style="fill:#6f9675; stroke:none;" d="M943 176L944 177L943 176z"/>
<path style="fill:#eaab85; stroke:none;" d="M945 177L946 178L945 177M948 178L949 179L948 178M949.667 179.333C949.222 179.778 950.278 179.722 950.333 179.667C950.778 179.222 949.722 179.278 949.667 179.333M953 180L954 181L953 180M957 182L958 183L957 182M965 185C965.98 186.783 965.908 186.594 968 187C966.861 185.985 966.388 185.691 965 185M970 187L971 188L970 187M972 188L973 189L972 188M974 189C975.248 189.685 975.548 189.749 977 190C975.752 189.315 975.451 189.251 974 189M977.667 190.333C977.223 190.777 978.278 190.722 978.333 190.667C978.778 190.222 977.722 190.278 977.667 190.333M979 191L980 192L979 191M980 192L981 193L980 192M983 193L984 194L983 193M985.667 194.333C985.222 194.778 986.278 194.722 986.333 194.667C986.778 194.222 985.722 194.278 985.667 194.333M988 195L989 196L988 195M989.667 196.333C989.222 196.778 990.278 196.722 990.333 196.667C990.778 196.222 989.722 196.278 989.667 196.333M991.667 197.333C991.222 197.778 992.278 197.722 992.333 197.667C992.778 197.222 991.722 197.278 991.667 197.333M993.667 198.333C993.222 198.778 994.278 198.722 994.333 198.667C994.778 198.222 993.722 198.278 993.667 198.333M995.667 199.333C995.222 199.778 996.278 199.722 996.333 199.667C996.778 199.222 995.722 199.278 995.667 199.333M997 200L998 201L997 200M999.667 201.333C999.222 201.778 1000.28 201.722 1000.33 201.667C1000.78 201.222 999.722 201.278 999.667 201.333M1001.67 202.333C1001.22 202.777 1002.28 202.722 1002.33 202.667C1002.78 202.222 1001.72 202.278 1001.67 202.333M1003.67 203.333C1003.22 203.778 1004.28 203.722 1004.33 203.667C1004.78 203.222 1003.72 203.278 1003.67 203.333M1005.67 204.333C1005.22 204.778 1006.28 204.722 1006.33 204.667C1006.78 204.222 1005.72 204.278 1005.67 204.333M1007.67 205.333C1007.22 205.778 1008.28 205.722 1008.33 205.667C1008.78 205.222 1007.72 205.278 1007.67 205.333M1010 206L1011 207L1010 206M1012 207L1013 208L1012 207M1013 208C1013.55 209.635 1013.36 209.455 1015 210L1015 208L1013 208M1015.67 210.333C1015.22 210.778 1016.28 210.722 1016.33 210.667C1016.78 210.222 1015.72 210.278 1015.67 210.333M1018 211L1019 212L1018 211M1021 213L1022 214L1021 213M1023 214L1024 215L1023 214M1024 215L1025 216L1024 215M1026 216L1027 217L1026 216M1028 217L1029 218L1028 217M1033.67 220.333C1033.22 220.778 1034.28 220.722 1034.33 220.667C1034.78 220.222 1033.72 220.278 1033.67 220.333M1035 221L1036 222L1035 221M1038 223L1039 224L1038 223M1040 224L1041 225L1040 224M1041.67 225.333C1041.22 225.778 1042.28 225.722 1042.33 225.667C1042.78 225.222 1041.72 225.278 1041.67 225.333z"/>
<path style="fill:#221716; stroke:none;" d="M1080 412L1080 225C1059.83 228.595 1044.78 251.447 1037.6 269C1023.26 304.096 1023.92 346.916 1043.6 380C1051.76 393.702 1063.86 407.932 1080 412z"/>
<path style="fill:#eaab85; stroke:none;" d="M1043 226L1044 227L1043 226M1044 227L1045 228L1044 227M1045.67 228.333C1045.22 228.778 1046.28 228.722 1046.33 228.667C1046.78 228.222 1045.72 228.278 1045.67 228.333M1047 229L1048 230L1047 229M1049 231L1050 232L1049 231M1050.67 232.333C1050.22 232.778 1051.28 232.722 1051.33 232.667C1051.78 232.222 1050.72 232.278 1050.67 232.333M1052.67 233.333C1052.22 233.778 1053.28 233.722 1053.33 233.667C1053.78 233.223 1052.72 233.278 1052.67 233.333M1054 234L1055 235L1054 234M1055 235L1056 236L1055 235M1056 239L1057 240L1056 239M1055 240L1056 241L1055 240z"/>
<path style="fill:#6f9675; stroke:none;" d="M1052 244L1053 245L1052 244M1051 245L1052 246L1051 245z"/>
<path style="fill:#eaab85; stroke:none;" d="M1050 246L1051 247L1050 246z"/>
<path style="fill:#6f9675; stroke:none;" d="M1048 249L1049 250L1048 249z"/>
<path style="fill:#eaab85; stroke:none;" d="M1047 250L1048 251L1047 250z"/>
<path style="fill:#6f9675; stroke:none;" d="M1046 252L1047 253L1046 252z"/>
<path style="fill:#eaab85; stroke:none;" d="M1045 253L1046 254L1045 253z"/>
<path style="fill:#6f9675; stroke:none;" d="M1044 255L1045 256L1044 255z"/>
<path style="fill:#eaab85; stroke:none;" d="M1043 256L1044 257L1043 256z"/>
<path style="fill:#6f9675; stroke:none;" d="M1043 257L1044 258L1043 257z"/>
<path style="fill:#eaab85; stroke:none;" d="M1042 258L1043 259L1042 258z"/>
<path style="fill:#6f9675; stroke:none;" d="M1041 260L1042 261L1041 260M1040 262L1041 263L1040 262z"/>
<path style="fill:#eaab85; stroke:none;" d="M1039 264L1040 265L1039 264M1038 266L1039 267L1038 266M1037 268L1038 269L1037 268z"/>
<path style="fill:#6f9675; stroke:none;" d="M1037 269L1038 270L1037 269z"/>
<path style="fill:#eaab85; stroke:none;" d="M1002.67 270.333C1002.22 270.777 1003.28 270.722 1003.33 270.667C1003.78 270.222 1002.72 270.278 1002.67 270.333z"/>
<path style="fill:#dc3a01; stroke:none;" d="M1035 276C1019.88 270.166 1004.36 267.887 989 274.525C953.521 289.858 946.697 336.866 974.001 362.96C986.194 374.613 1004.66 379.343 1021 375.65C1025.39 374.66 1034.39 373.438 1036.36 368.61C1037.72 365.264 1035.05 361.037 1033.92 358C1031.68 352.041 1030.14 345.306 1029.29 339C1026.48 318.189 1027.62 295.795 1035 276z"/>
<path style="fill:#eaab85; stroke:none;" d="M1012 270C1013.77 270.779 1015.04 270.912 1017 271C1015.23 270.221 1013.96 270.088 1012 270M1036 270L1037 271L1036 270M998 271L999 272L998 271M1021 271L1022 272L1021 271z"/>
<path style="fill:#6f9675; stroke:none;" d="M1036 271L1037 272L1036 271z"/>
<path style="fill:#eaab85; stroke:none;" d="M993 272C994.249 272.685 994.548 272.749 996 273C994.752 272.315 994.452 272.251 993 272M1025 272C1026.25 272.685 1026.55 272.749 1028 273C1026.75 272.315 1026.45 272.251 1025 272M991 273L992 274L991 273M1028 273L1029 274L1028 273M1035 273L1036 274L1035 273M988 274L989 275L988 274M1031 274L1032 275L1031 274z"/>
<path style="fill:#6f9675; stroke:none;" d="M1035 274L1036 275L1035 274z"/>
<path style="fill:#eaab85; stroke:none;" d="M1033 275L1034 276L1033 275M984.667 276.333C984.222 276.778 985.278 276.722 985.333 276.667C985.778 276.222 984.722 276.278 984.667 276.333M983 277L984 278L983 277M981 278L982 279L981 278M978 280L979 281L978 280M977 281L978 282L977 281M973 284L974 285L973 284M972 285L973 286L972 285M971 286L972 287L971 286M970 287L971 288L970 287M969 288L970 289L969 288M968 289L969 290L968 289M967 291L968 292L967 291M966 292L967 293L966 292M964 295L965 296L964 295M963 297L964 298L963 297M962 299L963 300L962 299M961 301L962 302L961 301M960 303L961 304L960 303M959 306L960 307L959 306M958 309L959 310L958 309M957 312L957 316C957.71 314.24 957.71 313.76 957 312M956 317L956 331C957.667 327.028 957.667 320.972 956 317M957 332L957 336C957.71 334.24 957.71 333.76 957 332M958 337L959 338L958 337M959 340L960 341L959 340M960 343L961 344L960 343M961 346L962 347L961 346M962 348L963 349L962 348M963 349L964 350L963 349M964 351L965 352L964 351M965 353L966 354L965 353M966 354L967 355L966 354M968 357L969 358L968 357M969 358L970 359L969 358M970 359L971 360L970 359M971 360L972 361L971 360M972 361L973 362L972 361M973 362L974 363L973 362M974 363L975 364L974 363M975 364L976 365L975 364M979 367L980 368L979 367M982 369L983 370L982 369M1037 369L1038 370L1037 369M984 370L985 371L984 370M1035 370L1036 371L1035 370M1038 370L1039 371L1038 370M986 371L987 372L986 371M1033.67 371.333C1033.22 371.777 1034.28 371.723 1034.33 371.667C1034.78 371.222 1033.72 371.278 1033.67 371.333M988 372L989 373L988 372M1031 372L1032 373L1031 372M1039 372L1040 373L1039 372M990 373L991 374L990 373M1029 373L1030 374L1029 373M993 374L994 375L993 374M1026 374L1027 375L1026 374z"/>
<path style="fill:#6f9675; stroke:none;" d="M1040 374L1041 375L1040 374z"/>
<path style="fill:#eaab85; stroke:none;" d="M996 375C997.248 375.685 997.549 375.749 999 376C997.752 375.315 997.452 375.251 996 375M1021 375C1022.25 375.685 1022.55 375.749 1024 376C1022.75 375.315 1022.45 375.251 1021 375M1002.67 376.333C1002.22 376.778 1003.28 376.722 1003.33 376.667C1003.78 376.222 1002.72 376.278 1002.67 376.333M1017.67 376.333C1017.22 376.778 1018.28 376.722 1018.33 376.667C1018.78 376.222 1017.72 376.278 1017.67 376.333z"/>
<path style="fill:#6f9675; stroke:none;" d="M1041 376L1042 377L1041 376z"/>
<path style="fill:#eaab85; stroke:none;" d="M1042 378L1043 379L1042 378z"/>
<path style="fill:#6f9675; stroke:none;" d="M1043 379L1044 380L1043 379z"/>
<path style="fill:#eaab85; stroke:none;" d="M1043 380L1044 381L1043 380z"/>
<path style="fill:#6f9675; stroke:none;" d="M1044 381L1045 382L1044 381z"/>
<path style="fill:#eaab85; stroke:none;" d="M1045 383L1046 384L1045 383z"/>
<path style="fill:#6f9675; stroke:none;" d="M1046 384L1047 385L1046 384z"/>
<path style="fill:#eaab85; stroke:none;" d="M1047 386L1048 387L1047 386z"/>
<path style="fill:#6f9675; stroke:none;" d="M1048 387L1049 388L1048 387z"/>
<path style="fill:#eaab85; stroke:none;" d="M1050 390L1051 391L1050 390z"/>
<path style="fill:#6f9675; stroke:none;" d="M1051 391L1052 392L1051 391M1052 392L1053 393L1052 392z"/>
<path style="fill:#eaab85; stroke:none;" d="M1055 396L1056 397L1055 396M1056 397L1057 398L1056 397M1059 400L1060 401L1059 400z"/>
<path style="fill:#6f9675; stroke:none;" d="M1061 401L1062 402L1061 401M1062 402L1063 403L1062 402M1063 403L1064 404L1063 403z"/>
<path style="fill:#eaab85; stroke:none;" d="M1064 404L1065 405L1064 404z"/>
<path style="fill:#6f9675; stroke:none;" d="M1066 405L1067 406L1066 405z"/>
<path style="fill:#eaab85; stroke:none;" d="M1067 406L1068 407L1067 406z"/>
<path style="fill:#6f9675; stroke:none;" d="M1069 407L1070 408L1069 407z"/>
<path style="fill:#eaab85; stroke:none;" d="M1070 408L1071 409L1070 408z"/>
<path style="fill:#6f9675; stroke:none;" d="M1071 408L1072 409L1071 408z"/>
<path style="fill:#eaab85; stroke:none;" d="M1072 409L1073 410L1072 409z"/>
<path style="fill:#6f9675; stroke:none;" d="M1073 409L1074 410L1073 409z"/>
<path style="fill:#eaab85; stroke:none;" d="M1074 410L1075 411L1074 410M1076 411L1077 412L1076 411z"/>
<path style="fill:#6f9675; stroke:none;" d="M1077 411L1078 412L1077 411z"/>
<path style="fill:#eaab85; stroke:none;" d="M1078 412L1079 413L1078 412z"/>
<path style="fill:#6f9675; stroke:none;" d="M1079 412L1080 413L1079 412M1024 428.522C1019.7 429.388 1015.32 431.276 1012.04 434.214C994.993 449.477 1008.79 480.403 1032 475.482C1043.22 473.104 1051.66 463.7 1051.66 452C1051.65 438.076 1038.03 425.696 1024 428.522z"/>
<path style="fill:#eaab85; stroke:none;" d="M216 554C217.248 554.685 217.548 554.749 219 555C217.752 554.315 217.452 554.251 216 554z"/>
<path style="fill:#6f9675; stroke:none;" d="M128 607L362 607C358.308 600.614 352.801 596.302 347 591.884C334.706 582.523 320.445 575.354 306 569.95C265.679 554.866 220.364 547.576 179 562.786C157.4 570.729 137.067 585.227 128 607z"/>
<path style="fill:#eaab85; stroke:none;" d="M235 554C236.769 554.779 238.036 554.912 240 555C238.231 554.221 236.964 554.088 235 554M208.667 555.333C208.222 555.778 209.278 555.722 209.333 555.667C209.778 555.222 208.722 555.278 208.667 555.333M199 556C200.248 556.685 200.548 556.749 202 557C200.752 556.315 200.452 556.251 199 556M252 556C253.769 556.779 255.036 556.912 257 557C255.231 556.221 253.964 556.088 252 556M266.667 558.333C266.222 558.778 267.278 558.722 267.333 558.667C267.778 558.222 266.722 558.278 266.667 558.333M187 559C188.248 559.685 188.548 559.749 190 560C188.752 559.315 188.452 559.251 187 559M270.667 559.333C270.222 559.778 271.278 559.722 271.333 559.667C271.778 559.222 270.722 559.278 270.667 559.333M184.667 560.333C184.222 560.778 185.278 560.722 185.333 560.667C185.778 560.222 184.722 560.278 184.667 560.333M274 560C275.248 560.685 275.548 560.749 277 561C275.752 560.315 275.451 560.251 274 560M182 561L183 562L182 561M179 562L180 563L179 562M176.667 563.333C176.222 563.778 177.278 563.722 177.333 563.667C177.778 563.222 176.722 563.278 176.667 563.333M286.667 563.333C286.222 563.778 287.278 563.722 287.333 563.667C287.778 563.222 286.722 563.278 286.667 563.333M172 565L173 566L172 565M293 565L294 566L293 565M170 566L171 567L170 566M302 568L303 569L302 568M164 569L165 570L164 569M304 569L305 570L304 569M162 570L163 571L162 570M307 570L308 571L307 570M160 571L161 572L160 571M312 572L313 573L312 572M157 573L158 574L157 573M314 573L315 574L314 573M316 574L317 575L316 574M154 575L155 576L154 575M150 578L151 579L150 578M327 579L328 580L327 579M330 581L331 582L330 581M332 582L333 583L332 582M144 583L145 584L144 583M334 583L335 584L334 583M143 584L144 585L143 584M142 585L143 586L142 585M337 585L338 586L337 585M141 586L142 587L141 586M140 587L141 588L140 587M343 589L344 590L343 589M346 591L347 592L346 591M347 592L348 593L347 592M135 593L136 594L135 593M351 595L352 596L351 595M133 596L134 597L133 596M352 596L353 597L352 596M131 599L132 600L131 599M130 601L131 602L130 601M129 603L130 604L129 603M360 604L361 605L360 604M128 605L129 606L128 605M361 605L362 606L361 605z"/>
</svg>
